# xmcd
#
# Track frame offsets:
#	150
#	16587
#	31660
#	52240
#	73227
#	90517
#	108855
#	125045
#	141835
#	158580
#	182817
#	202882
#	225685
#
# Disc length: 3104 seconds
#
# Revision: 8
# Processed by: cddbd v1.5.2PL0 Copyright (c) Steve Scherf et al.
# Submitted via: EasyCDDAExtractor 15.3.0.1
#
DISCID=a70c1e0d
DTITLE=Anastacia - Freak Of Nature (US Edition)
DYEAR=2002
DGENRE=Pop
TTITLE0=Freak Of Nature
TTITLE1=Paid My Dues
TTITLE2=Overdue Goodbye
TTITLE3=You'll Never Be Alone
TTITLE4=One Day In Your Life
TTITLE5=How Come The World Won't Stop
TTITLE6=I Thought I Told You That (Featuring Faith Evans)
TTITLE7=Why'd You Lie To Me
TTITLE8=Don't Cha Wanna
TTITLE9=Secrets
TTITLE10=Don't Stop (Doin' It)
TTITLE11=I Dreamed You
TTITLE12=Overdue Goodbye (Reprise)
EXTD=ID3G:  14 YEAR: 2002
EXTT0=
EXTT1=
EXTT2=
EXTT3=
EXTT4=
EXTT5=
EXTT6=
EXTT7=
EXTT8=
EXTT9=
EXTT10=
EXTT11=
EXTT12=
PLAYORDER=
